# xmcd
#
# Track frame offsets: 
#        180
#        19618
#        37659
#        56524
#        81329
#        97283
#        119469
#        135047
#        156699
#        171410
#
# Disc length: 2559 seconds
#
# Revision: 0
# Processed by: cddbd v1.5.1PL0 Copyright (c) Steve Scherf et al.
# Submitted via: ExactAudioCopy v0.95a5
#
DISCID=7f09fd0a
DTITLE=Calfee Jones - No Parking On The Devil Strip
DYEAR=1995
DGENRE=
TTITLE0=Monday Morning Blues (Blues for Mr. G)
TTITLE1=Working for the Man
TTITLE2=Proud Men
TTITLE3=Into the Night
TTITLE4=16 Tons
TTITLE5=Always at Night
TTITLE6=Five O'clock World
TTITLE7=San Antonio Blues
TTITLE8=Realignment Blues
TTITLE9=4:44
EXTD=
EXTT0=
EXTT1=
EXTT2=
EXTT3=
EXTT4=
EXTT5=
EXTT6=
EXTT7=
EXTT8=
EXTT9=
PLAYORDER=
